<svg id="visual" viewBox="0 0 900 600" width="900" height="600" xmlns="http://www.w3.org/2000/svg" xmlns:xlink="http://www.w3.org/1999/xlink" version="1.1"><rect x="0" y="0" width="900" height="600" fill="#fff"></rect><path d="M0 157L18.8 150.2C37.7 143.3 75.3 129.7 112.8 153.7C150.3 177.7 187.7 239.3 225.2 240.3C262.7 241.3 300.3 181.7 337.8 176.5C375.3 171.3 412.7 220.7 450.2 287.3C487.7 354 525.3 438 562.8 433C600.3 428 637.7 334 675.2 256.8C712.7 179.7 750.3 119.3 787.8 145.5C825.3 171.7 862.7 284.3 881.3 340.7L900 397L900 601L881.3 601C862.7 601 825.3 601 787.8 601C750.3 601 712.7 601 675.2 601C637.7 601 600.3 601 562.8 601C525.3 601 487.7 601 450.2 601C412.7 601 375.3 601 337.8 601C300.3 601 262.7 601 225.2 601C187.7 601 150.3 601 112.8 601C75.3 601 37.7 601 18.8 601L0 601Z" fill="#5d9eff" stroke-linecap="round" stroke-linejoin="miter"></path></svg>